<svg width="120" height="120" viewBox="0 0 120 120" fill="none" xmlns="http://www.w3.org/2000/svg">
<path d="M104.86 15.1403C103.923 14.1969 102.751 13.5212 101.465 13.1833C100.179 12.8453 98.8266 12.8575 97.5471 13.2184L10.2189 37.8278C8.75893 38.2539 7.46172 39.1112 6.49736 40.2873C5.53301 41.4634 4.94651 42.9035 4.81475 44.4187C4.683 45.9339 5.01213 47.4536 5.759 48.7785C6.50588 50.1034 7.63564 51.1717 9.0002 51.8434L49.1721 70.8278L68.1564 111C68.7656 112.274 69.7224 113.351 70.9166 114.105C72.1108 114.86 73.4938 115.262 74.9064 115.265H75.5627C77.0895 115.148 78.5431 114.563 79.7257 113.59C80.9083 112.617 81.7625 111.303 82.1721 109.828L106.781 22.4528C107.142 21.1733 107.155 19.8205 106.817 18.5348C106.479 17.249 105.803 16.077 104.86 15.1403ZM74.9533 107.765L56.4846 68.8122L75.8439 49.4528C76.2204 49.1117 76.5236 48.6977 76.7352 48.2359C76.9468 47.774 77.0624 47.274 77.0749 46.7662C77.0874 46.2583 76.9966 45.7533 76.808 45.2816C76.6193 44.8099 76.3369 44.3814 75.9777 44.0222C75.6184 43.663 75.19 43.3805 74.7183 43.1919C74.2466 43.0033 73.7415 42.9125 73.2337 42.925C72.7259 42.9375 72.2259 43.0531 71.764 43.2647C71.3022 43.4763 70.8882 43.7795 70.5471 44.1559L51.1877 63.5153L12.2346 45.0466L99.5627 20.4372L74.9533 107.765Z" fill="#363636"/>
</svg>
