<svg width="58" height="50" viewBox="0 0 58 50" fill="none" xmlns="http://www.w3.org/2000/svg">
<path d="M50.3002 6.30854C49.8509 5.91546 49.2887 5.63392 48.6719 5.49311C48.0551 5.35231 47.4062 5.35737 46.7925 5.50776L4.90186 15.7617C4.2015 15.9392 3.57924 16.2964 3.11664 16.7865C2.65405 17.2765 2.37271 17.8765 2.30951 18.5079C2.24631 19.1392 2.40419 19.7724 2.76246 20.3244C3.12073 20.8765 3.66267 21.3216 4.31723 21.6015L23.5874 29.5117L32.694 46.25C32.9862 46.781 33.4452 47.2296 34.018 47.544C34.5909 47.8585 35.2543 48.026 35.9319 48.0273H36.2467C36.9791 47.9783 37.6764 47.7346 38.2437 47.3292C38.8109 46.9238 39.2207 46.3765 39.4172 45.7617L51.2221 9.35542C51.3953 8.82229 51.4011 8.25864 51.239 7.7229C51.0769 7.18716 50.7527 6.69883 50.3002 6.30854ZM35.9544 44.9023L27.0951 28.6718L36.3816 20.6054C36.5622 20.4633 36.7077 20.2908 36.8092 20.0984C36.9107 19.9059 36.9661 19.6976 36.9721 19.486C36.9781 19.2744 36.9345 19.0639 36.8441 18.8674C36.7536 18.6709 36.6181 18.4923 36.4458 18.3427C36.2735 18.193 36.0679 18.0753 35.8417 17.9967C35.6154 17.9181 35.3731 17.8803 35.1295 17.8855C34.8859 17.8907 34.6461 17.9389 34.4245 18.027C34.203 18.1152 34.0044 18.2415 33.8408 18.3984L24.5542 26.4648L5.86874 18.7695L47.7593 8.51557L35.9544 44.9023Z" fill="white"/>
</svg>
