<svg width="33" height="33" viewBox="0 0 33 33" fill="none" xmlns="http://www.w3.org/2000/svg">
<path d="M16.5 24.75C24.0941 24.75 30.25 16.5 30.25 16.5C30.25 16.5 24.0941 8.25 16.5 8.25C8.90587 8.25 2.75 16.5 2.75 16.5C2.75 16.5 8.90587 24.75 16.5 24.75Z" stroke="white" stroke-width="2.75" stroke-linejoin="round"/>
<path d="M16.5 19.9375C17.4117 19.9375 18.286 19.5753 18.9307 18.9307C19.5753 18.286 19.9375 17.4117 19.9375 16.5C19.9375 15.5883 19.5753 14.714 18.9307 14.0693C18.286 13.4247 17.4117 13.0625 16.5 13.0625C15.5883 13.0625 14.714 13.4247 14.0693 14.0693C13.4247 14.714 13.0625 15.5883 13.0625 16.5C13.0625 17.4117 13.4247 18.286 14.0693 18.9307C14.714 19.5753 15.5883 19.9375 16.5 19.9375Z" stroke="white" stroke-width="2.75" stroke-linejoin="round"/>
</svg>
