<svg width="32" height="32" viewBox="0 0 32 32" fill="none" xmlns="http://www.w3.org/2000/svg">
<path fill-rule="evenodd" clip-rule="evenodd" d="M28 4.99996C28 4.73474 27.8946 4.48039 27.7071 4.29285C27.5196 4.10531 27.2652 3.99996 27 3.99996H15C14.7348 3.99996 14.4804 4.10531 14.2929 4.29285C14.1054 4.48039 14 4.73474 14 4.99996C14 5.26517 14.1054 5.51953 14.2929 5.70707C14.4804 5.8946 14.7348 5.99996 15 5.99996H24.586L4.292 26.292C4.10423 26.4797 3.99874 26.7344 3.99874 27C3.99874 27.2655 4.10423 27.5202 4.292 27.708C4.47977 27.8957 4.73445 28.0012 5 28.0012C5.26555 28.0012 5.52023 27.8957 5.708 27.708L26 7.41396L26 17C26 17.2652 26.1054 17.5195 26.2929 17.7071C26.4804 17.8946 26.7348 18 27 18C27.2652 18 27.5196 17.8946 27.7071 17.7071C27.8946 17.5195 28 17.2652 28 17L28 4.99996Z" fill="white"/>
</svg>
