<svg width="256" height="206" viewBox="0 0 256 206" fill="none" xmlns="http://www.w3.org/2000/svg">
<g clip-path="url(#clip0_101_90)">
<path d="M170.252 56.819L192.505 34.566L193.988 25.196C153.437 -11.677 88.976 -7.49598 52.42 33.92C42.267 45.423 34.734 59.764 30.717 74.573L38.687 73.45L83.192 66.11L86.628 62.597C106.425 40.855 139.898 37.93 162.756 56.429L170.252 56.819V56.819Z" fill="#EA4335"/>
<path d="M224.205 73.9178C219.09 55.0819 208.589 38.1486 193.988 25.1958L162.756 56.4278C169.265 61.7463 174.481 68.4735 178.012 76.1019C181.542 83.7302 183.294 92.0607 183.135 100.465V106.009C198.485 106.009 210.932 118.454 210.932 133.805C210.932 149.157 198.486 161.29 183.135 161.29H127.464L121.998 167.224V200.564L127.464 205.795H183.134C223.064 206.106 255.687 174.301 255.998 134.371C256.091 122.455 253.237 110.7 247.69 100.153C242.143 89.6065 234.076 80.594 224.205 73.9178" fill="#4285F4"/>
<path d="M71.8699 205.796H127.463V161.29H71.8699C67.9345 161.289 64.0459 160.437 60.4709 158.792L52.5839 161.212L30.1749 183.465L28.2229 191.039C40.7899 200.528 56.1229 205.864 71.8699 205.796Z" fill="#34A853"/>
<path d="M71.8701 61.4248C31.9401 61.6638 -0.236932 94.2278 0.00106768 134.159C0.0667147 145.162 2.64306 156.006 7.53381 165.863C12.4246 175.72 19.5007 184.33 28.2231 191.039L60.4711 158.793C46.4811 152.471 40.2631 136.007 46.5841 122.017C52.9041 108.027 69.3701 101.809 83.3591 108.129C89.5238 110.914 94.4613 115.852 97.2461 122.017L129.494 89.7688C122.726 80.9201 114.002 73.7571 104.006 68.84C94.009 63.9229 83.0104 61.385 71.8701 61.4248" fill="#FBBC05"/>
</g>
<defs>
<clipPath id="clip0_101_90">
<rect width="256" height="206" fill="white"/>
</clipPath>
</defs>
</svg>
