<svg width="144" height="144" viewBox="0 0 144 144" fill="none" xmlns="http://www.w3.org/2000/svg">
<path d="M26.5579 122.405L16.4509 9H127.547L117.426 122.387L71.9314 135L26.5579 122.405Z" fill="#1572B6"/>
<path d="M72 125.361L108.765 115.168L117.414 18.2744H72V125.361Z" fill="#33A9DC"/>
<path d="M72 59.36H90.405L91.674 45.1175H72V31.208H106.875L106.542 34.9385L103.126 73.2695H72V59.36V59.36Z" fill="white"/>
<path d="M72.0866 95.4817L72.0236 95.4997L56.5346 91.3147L55.5446 80.2222H41.5811L43.5296 102.061L72.0191 109.972L72.0866 109.954V95.4817V95.4817Z" fill="#EBEBEB"/>
<path d="M89.2207 72.6787L87.5467 91.3042L72.0352 95.4892V109.961L100.547 102.059L100.759 99.7102L103.175 72.6787H89.2207V72.6787Z" fill="white"/>
<path d="M72.0498 31.208V45.1175H38.4528L38.1738 41.99L37.5393 34.9385L37.2063 31.208H72.0498V31.208Z" fill="#EBEBEB"/>
<path d="M72.0009 59.3594V73.2689H56.7054L56.4264 70.1414L55.7964 63.0899L55.4634 59.3594H72.0009V59.3594Z" fill="#EBEBEB"/>
</svg>
