<svg width="93" height="93" viewBox="0 0 93 93" fill="none" xmlns="http://www.w3.org/2000/svg">
<g clip-path="url(#clip0_101_63)">
<path d="M46.4923 0C20.7933 0 1.03481e-05 20.7971 1.03481e-05 46.5C-0.00406547 52.6076 1.19591 58.6561 3.53131 64.2996C5.86671 69.9431 9.29172 75.0708 13.6105 79.3896C17.9292 83.7083 23.0569 87.1333 28.7004 89.4687C34.3439 91.8041 40.3924 93.0041 46.5 93C72.2029 93 93 72.2029 93 46.5C92.9961 20.7971 72.0285 0 46.4923 0Z" fill="#363636"/>
<path d="M24.6835 56.4784C26.2025 58.505 28.233 59.3537 31.1044 59.3537C32.4606 59.3537 33.813 59.1831 34.9949 58.6755C36.1806 58.1718 37.533 57.4898 39.2186 56.4784L43.9577 63.2403C40.0711 66.4565 35.673 67.9755 30.6006 67.9755C26.5396 67.9755 23.1606 67.1308 20.1187 65.4413C17.1657 63.6992 14.8075 61.106 13.353 58.0013C11.834 54.785 10.9854 51.065 10.9854 46.6669C10.9854 42.4431 11.834 38.5526 13.3491 35.3403C14.7958 32.14 17.1512 29.4355 20.1226 27.5631C22.994 25.7031 26.5435 24.8584 30.434 24.8584C33.1426 24.8584 35.6769 25.1955 37.7074 26.0403C39.9853 26.922 42.0994 28.1795 43.9616 29.7603L39.2264 36.185C38.0242 35.2975 36.7192 34.5584 35.3397 33.984C34.1579 33.4803 32.635 33.3098 31.2787 33.3098C25.5321 33.3098 22.6569 37.704 22.6569 46.663C22.4902 51.2355 23.335 54.444 24.6874 56.4745H24.6835V56.4784ZM71.1835 66.9603C69.494 72.2032 66.9558 76.0936 63.4025 78.965C59.853 81.8441 55.1177 83.3631 49.2006 83.8708L48.0187 75.927C51.9054 75.4155 54.7806 74.5708 56.6406 73.2145C57.3148 72.7108 58.6711 71.1879 58.6711 71.1879L44.6359 26.2108H56.2996L64.4177 59.8574L73.0435 26.2108H84.3701L71.1835 66.9603Z" fill="white"/>
</g>
<defs>
<clipPath id="clip0_101_63">
<rect width="93" height="93" fill="white"/>
</clipPath>
</defs>
</svg>
