<svg width="112" height="112" viewBox="0 0 112 112" fill="none" xmlns="http://www.w3.org/2000/svg">
<path d="M0 0H112V112H0V0Z" fill="#F7DF1E"/>
<path d="M29.4489 93.5952L38.0196 88.4082C39.6733 91.3399 41.1774 93.8205 44.7855 93.8205C48.2439 93.8205 50.4249 92.4678 50.4249 87.2055V51.4189H60.9498V87.3543C60.9498 98.2555 54.5597 103.218 45.2366 103.218C36.8169 103.218 31.9295 98.857 29.4485 93.5943L29.4489 93.5952ZM66.6666 92.4673L75.2364 87.5056C77.4925 91.1898 80.4247 93.8962 85.6117 93.8962C89.9731 93.8962 92.7539 91.7157 92.7539 88.7083C92.7539 85.0998 89.897 83.8215 85.0854 81.7171L82.4547 80.5883C74.861 77.3565 69.8241 73.2965 69.8241 64.7259C69.8241 56.8316 75.8384 50.8169 85.2363 50.8169C91.9274 50.8169 96.739 53.1479 100.197 59.2375L92.0018 64.5006C90.1971 61.2679 88.2432 59.99 85.2359 59.99C82.1532 59.99 80.1985 61.9447 80.1985 64.5006C80.1985 67.658 82.1532 68.9368 86.6639 70.8916L89.295 72.019C98.2419 75.8537 103.279 79.7628 103.279 88.5583C103.279 98.0319 95.836 103.219 85.837 103.219C76.0637 103.219 69.7484 98.5578 66.6662 92.4678" fill="black"/>
</svg>
