<svg width="250" height="250" viewBox="0 0 250 250" fill="none" xmlns="http://www.w3.org/2000/svg">
<path fill-rule="evenodd" clip-rule="evenodd" d="M0.333255 21.1639C0.333255 15.6393 2.52791 10.3409 6.43442 6.43444C10.3409 2.52793 15.6393 0.33328 21.1639 0.33328H228.813C231.551 0.328808 234.263 0.864393 236.794 1.90937C239.324 2.95435 241.624 4.48819 243.561 6.42309C245.498 8.35799 247.034 10.6559 248.082 13.1854C249.13 15.7148 249.668 18.4261 249.667 21.1639V228.813C249.67 231.552 249.133 234.264 248.086 236.794C247.04 239.325 245.505 241.625 243.569 243.561C241.634 245.498 239.335 247.034 236.805 248.082C234.275 249.13 231.563 249.668 228.825 249.667H21.1639C18.4274 249.667 15.7178 249.127 13.1898 248.08C10.6617 247.032 8.36486 245.497 6.43041 243.561C4.49595 241.626 2.96181 239.328 1.91564 236.8C0.869469 234.271 0.331766 231.561 0.333255 228.825V21.1639ZM99.0239 95.3973H132.786V112.352C137.659 102.605 150.126 93.8333 168.86 93.8333C204.775 93.8333 213.287 113.247 213.287 148.868V214.851H176.941V156.983C176.941 136.696 172.067 125.249 159.691 125.249C142.521 125.249 135.381 137.591 135.381 156.983V214.851H99.0239V95.3973ZM36.6906 213.298H73.0479V93.8333H36.6906V213.287V213.298ZM78.2499 54.8693C78.3185 57.9822 77.7645 61.0775 76.6206 63.9735C75.4767 66.8695 73.7659 69.5078 71.5886 71.7336C69.4112 73.9595 66.8112 75.728 63.9411 76.9354C61.071 78.1427 57.9886 78.7647 54.8749 78.7647C51.7612 78.7647 48.6789 78.1427 45.8088 76.9354C42.9387 75.728 40.3387 73.9595 38.1613 71.7336C35.9839 69.5078 34.2731 66.8695 33.1292 63.9735C31.9853 61.0775 31.4314 57.9822 31.4999 54.8693C31.6345 48.759 34.1563 42.9442 38.5253 38.6704C42.8943 34.3965 48.7631 32.0033 54.8749 32.0033C60.9867 32.0033 66.8556 34.3965 71.2246 38.6704C75.5936 42.9442 78.1154 48.759 78.2499 54.8693V54.8693Z" fill="black"/>
</svg>
