<svg width="240" height="240" viewBox="0 0 240 240" fill="none" xmlns="http://www.w3.org/2000/svg">
<path fill-rule="evenodd" clip-rule="evenodd" d="M65.8875 51.4874C63.9008 51.4811 61.9217 51.7332 60 52.2374V52.4999H60.285C61.6613 54.5775 63.1959 56.5459 64.875 58.3874C66.03 60.6824 67.035 62.9699 68.1825 65.2649L68.4675 64.9724C69.5329 64.1267 70.3668 63.0249 70.8914 61.7698C71.416 60.5148 71.6142 59.1473 71.4675 57.7949C70.8394 56.8264 70.2636 55.825 69.7425 54.7949C68.88 53.3624 67.0125 52.6424 65.865 51.4949" fill="#5D87A1"/>
<path fill-rule="evenodd" clip-rule="evenodd" d="M208.35 176.647C198.889 175.983 189.396 177.353 180.51 180.667C178.357 181.53 174.922 181.53 174.622 184.252C175.777 185.4 175.912 187.252 176.925 188.85C178.889 192.176 181.414 195.137 184.387 197.602C187.387 199.897 190.387 202.185 193.575 204.195C199.162 207.652 205.485 209.655 210.93 213.097C214.095 215.107 217.245 217.687 220.41 219.847C221.985 220.995 222.982 222.847 224.992 223.597V223.162C224.402 221.568 223.671 220.03 222.81 218.565C221.377 217.14 219.937 215.842 218.497 214.41C214.29 208.847 209.257 203.96 203.572 199.92C198.975 196.755 188.925 192.42 187.072 187.17L186.78 186.877C190.144 186.4 193.459 185.627 196.687 184.567C201.562 183.277 206.01 183.57 211.027 182.317C213.33 181.74 217.492 180.307 217.492 180.307V178.057C214.927 175.507 213.09 172.095 210.39 169.687C203.044 163.275 195.216 157.438 186.975 152.227C182.572 149.385 176.895 147.555 172.207 145.132C170.512 144.277 167.707 143.857 166.68 142.432C164.348 139.012 162.397 135.348 160.86 131.505C156.664 123.426 152.783 115.187 149.227 106.807C147.132 101.278 144.715 95.8766 141.99 90.6296C128.837 68.2681 109.853 49.9032 87.0672 37.4997C81.318 34.7168 75.2054 32.7576 68.9097 31.6797C65.3547 31.5297 61.8147 31.2522 58.2672 31.1172C55.9772 29.6169 53.799 27.9525 51.7497 26.1372C43.6347 20.9997 22.7847 9.95965 16.8147 24.5772C12.9897 33.8097 22.4997 42.8847 25.7622 47.5722C28.5131 50.8773 30.937 54.4415 32.9997 58.2147C33.9972 60.6297 34.2822 63.1872 35.2497 65.7147C37.3316 72.2029 39.8036 78.5595 42.6522 84.7496C44.1758 87.8091 45.9309 90.7476 47.9022 93.5396C49.0497 95.1071 51.0297 95.7896 51.4572 98.3771C49.8843 101.758 48.784 105.339 48.1872 109.02C45.708 116.849 44.7956 125.09 45.5021 133.272C46.2086 141.454 48.5202 149.416 52.3047 156.705C54.5547 160.252 59.9697 168.06 67.2072 165.075C73.5897 162.525 72.1722 154.432 74.0172 147.345C74.4372 145.627 74.1597 144.502 75.0072 143.37V144.75C75.0072 144.75 78.6297 152.707 80.4297 156.75C85.3248 164.167 91.4059 170.73 98.4297 176.175C101.208 178.6 103.446 181.582 105 184.927V187.5H108.202C108.136 186.34 107.814 185.209 107.26 184.187C106.707 183.166 105.935 182.279 105 181.59C102.374 178.887 99.9683 175.977 97.8072 172.89C91.9366 164.529 86.7593 155.702 82.3272 146.497C80.0772 141.997 78.1797 137.062 76.3797 132.57C75.5547 130.837 75.5547 128.22 74.1672 127.32C71.6052 130.351 69.382 133.653 67.5372 137.167C65.2977 144.27 63.9942 151.635 63.6597 159.075C63.1122 159.225 63.3822 159.075 63.1122 159.36C58.6947 158.197 57.1722 153.42 55.5072 149.37C51.206 136.879 50.7721 123.381 54.2622 110.64C55.2222 107.602 59.3847 98.0321 57.7197 95.1296C56.8872 92.3621 54.1197 90.7796 52.6047 88.5971C50.6706 85.661 49.0063 82.5559 47.6322 79.3196C44.3397 71.2496 42.6747 62.2497 39.0897 54.1197C37.1052 50.2096 34.7945 46.4739 32.1822 42.9522C29.2926 39.4342 26.7436 35.6497 24.5697 31.6497C23.8797 30.0522 22.9122 27.4422 24.0147 25.7022C24.0891 25.2188 24.319 24.7729 24.6695 24.4319C25.02 24.0908 25.472 23.8733 25.9572 23.8122C27.7422 22.2222 32.8647 24.2472 34.6572 25.1172C39.4749 27.0137 44.0637 29.4466 48.3372 32.3697C50.2722 33.8247 54.8322 37.5072 54.8322 37.5072H56.1822C60.7722 38.5047 65.9322 37.7847 70.2522 39.0822C77.5259 41.5068 84.4674 44.8327 90.9147 48.9822C109.917 61.0958 125.365 78.0346 135.682 98.0696C137.407 101.362 138.135 104.385 139.71 107.82C142.71 114.87 146.46 122.07 149.46 128.925C152.106 135.707 155.529 142.16 159.66 148.155C161.805 151.155 170.422 152.745 174.3 154.32C177.667 155.485 180.971 156.824 184.2 158.332C189.082 161.332 193.95 164.79 198.547 168.082C200.835 169.807 208.012 173.392 208.447 176.265" fill="#00758F"/>
</svg>
