<svg width="279" height="279" viewBox="0 0 279 279" fill="none" xmlns="http://www.w3.org/2000/svg">
<g clip-path="url(#clip0_101_101)">
<path d="M277.859 157.213C287.623 80.7814 233.645 10.9039 157.353 1.14107C81.0604 -8.62284 10.9039 45.3549 1.14107 121.647C-8.62284 197.94 45.3549 267.957 121.647 277.859C198.079 287.623 267.957 233.645 277.859 157.213Z" fill="#FF6C37"/>
<path d="M189.851 89.5673L130.991 148.427L114.393 131.828C172.276 73.9466 177.994 78.9675 189.849 89.5673H189.851Z" fill="white"/>
<path d="M130.991 149.821C130.573 149.821 130.294 149.681 130.015 149.402L113.278 132.805C113.146 132.679 113.041 132.528 112.969 132.36C112.897 132.192 112.86 132.012 112.86 131.829C112.86 131.647 112.897 131.466 112.969 131.298C113.041 131.131 113.146 130.979 113.278 130.853C172.136 71.9941 178.273 77.573 190.687 88.7308C190.966 89.0098 191.105 89.2888 191.105 89.7073C191.105 90.1258 190.966 90.4048 190.687 90.6838L131.828 149.402C131.689 149.681 131.27 149.821 130.991 149.821V149.821ZM116.347 131.829L130.991 146.474L187.758 89.7073C177.437 80.5025 170.462 77.7125 116.347 131.83V131.829Z" fill="#FF6C37"/>
<path d="M147.868 165.303L131.829 149.263L190.687 90.4048C206.448 106.306 182.877 132.108 147.868 165.303Z" fill="white"/>
<path d="M147.868 166.698C147.449 166.698 147.17 166.559 146.893 166.28L130.852 150.24C130.573 149.961 130.573 149.682 130.573 149.263C130.573 148.846 130.713 148.566 130.992 148.288L189.851 89.4284C189.977 89.2961 190.128 89.1908 190.296 89.1188C190.464 89.0469 190.645 89.0098 190.827 89.0098C191.01 89.0098 191.191 89.0469 191.359 89.1188C191.527 89.1908 191.678 89.2961 191.804 89.4284C193.585 91.0764 194.992 93.0868 195.93 95.3244C196.868 97.5619 197.316 99.9745 197.243 102.4C196.964 117.882 179.392 137.547 148.985 166.28C148.567 166.559 148.148 166.698 147.869 166.698H147.868ZM133.782 149.263C142.708 158.329 146.474 161.955 147.868 163.35C171.3 141.035 194.034 118.161 194.174 102.4C194.314 98.7738 192.919 95.1468 190.547 92.3579L133.782 149.263V149.263Z" fill="#FF6C37"/>
<path d="M114.673 132.247L126.529 144.103C126.808 144.382 126.808 144.661 126.529 144.94C126.389 145.079 126.389 145.079 126.25 145.079L101.702 150.379C100.446 150.519 99.3304 149.682 99.0514 148.427C98.9119 147.73 99.1909 147.032 99.6094 146.614L113.836 132.387C114.115 132.108 114.534 131.968 114.673 132.247V132.247Z" fill="white"/>
<path d="M101.283 151.774C99.1909 151.774 97.6575 150.1 97.6575 148.008C97.6575 147.032 98.076 146.055 98.7735 145.358L112.999 131.131C113.836 130.434 114.952 130.434 115.789 131.131L127.645 142.986C128.482 143.684 128.482 144.939 127.645 145.776C127.366 146.055 127.087 146.195 126.668 146.334L102.12 151.634C101.841 151.634 101.562 151.774 101.283 151.774ZM114.255 133.782L100.586 147.45C100.307 147.729 100.167 148.148 100.446 148.566C100.586 148.985 101.004 149.123 101.423 148.985L124.436 143.963L114.255 133.782V133.782Z" fill="#FF6C37"/>
<path d="M220.953 56.931C212.027 48.2831 197.661 48.5621 189.014 57.6285C180.366 66.6938 180.645 80.9206 189.712 89.5675C193.29 93.0251 197.912 95.2012 202.857 95.7563C207.801 96.3115 212.791 95.2145 217.047 92.6365L201.146 76.7356L220.952 56.931H220.953Z" fill="white"/>
<path d="M205.332 97.2395C192.082 97.2395 181.343 86.5002 181.343 73.2499C181.343 59.9996 192.082 49.2603 205.332 49.2603C211.468 49.2603 217.466 51.6318 221.93 55.9552C222.208 56.2342 222.348 56.5132 222.348 56.9317C222.348 57.3502 222.208 57.6292 221.929 57.9082L203.1 76.7363L217.885 91.5211C218.443 92.0791 218.443 92.9161 217.885 93.4741L217.606 93.7531C213.979 95.984 209.656 97.2406 205.332 97.2406V97.2395ZM205.332 52.1898C193.616 52.1898 184.131 61.6736 184.271 73.3894C184.271 85.1052 193.756 94.5901 205.472 94.4506C208.679 94.4506 211.888 93.7531 214.816 92.2186L200.172 77.7128C199.893 77.4338 199.753 77.1548 199.753 76.7363C199.753 76.3189 199.893 76.0388 200.172 75.7609L218.861 57.0701C215.095 53.8627 210.353 52.1898 205.332 52.1898V52.1898Z" fill="#FF6C37"/>
<path d="M221.371 57.3498L221.092 57.0708L201.148 76.7359L216.908 92.4973C218.443 91.5208 219.976 90.4048 221.232 89.1493C223.345 87.0795 225.026 84.611 226.178 81.8867C227.33 79.1624 227.93 76.2365 227.943 73.2787C227.956 70.3208 227.382 67.3898 226.254 64.6555C225.126 61.9212 223.466 59.438 221.371 57.3498V57.3498Z" fill="white"/>
<path d="M217.048 94.0318C216.629 94.0318 216.35 93.8923 216.071 93.6133L200.171 77.7124C199.893 77.4334 199.753 77.1544 199.753 76.7359C199.753 76.3185 199.893 76.0384 200.172 75.7605L219.976 55.9548C220.102 55.8225 220.254 55.7172 220.422 55.6452C220.589 55.5732 220.77 55.5361 220.953 55.5361C221.135 55.5361 221.316 55.5732 221.484 55.6452C221.652 55.7172 221.803 55.8225 221.929 55.9548L222.348 56.2338C231.693 65.5781 231.693 80.6419 222.487 90.1258C221.092 91.5208 219.559 92.7763 217.885 93.7528C217.466 93.8923 217.187 94.0318 217.048 94.0318V94.0318ZM203.1 76.7359L217.187 90.8233C218.303 90.1258 219.419 89.1493 220.255 88.3133C228.206 80.3629 228.624 67.3916 220.953 59.0227L203.101 76.7359H203.1Z" fill="#FF6C37"/>
<path d="M192.221 92.0787C190.611 90.4712 188.429 89.5684 186.154 89.5684C183.879 89.5684 181.697 90.4712 180.087 92.0787L127.505 144.66L136.292 153.448L191.942 104.632C195.569 101.563 195.847 96.1231 192.779 92.4972C192.5 92.3577 192.361 92.2182 192.221 92.0787V92.0787Z" fill="white"/>
<path d="M136.152 154.842C135.734 154.842 135.455 154.703 135.176 154.424L126.389 145.636C126.257 145.511 126.152 145.359 126.08 145.191C126.008 145.023 125.971 144.843 125.971 144.66C125.971 144.477 126.008 144.297 126.08 144.129C126.152 143.961 126.257 143.809 126.389 143.683L178.971 91.1018C179.894 90.1735 180.992 89.4369 182.201 88.9343C183.409 88.4316 184.706 88.1729 186.015 88.1729C187.324 88.1729 188.62 88.4316 189.829 88.9343C191.038 89.4369 192.135 90.1735 193.058 91.1018C193.987 92.025 194.723 93.1225 195.226 94.3313C195.729 95.5401 195.987 96.8363 195.987 98.1455C195.987 99.4546 195.729 100.751 195.226 101.96C194.723 103.168 193.987 104.266 193.058 105.189L192.64 105.608L136.989 154.424C136.85 154.703 136.571 154.842 136.152 154.842V154.842ZM129.457 144.66L136.292 151.494L190.966 103.515C194.035 101.004 194.314 96.4017 191.803 93.3338C189.293 90.2648 184.689 89.9858 181.622 92.4968C181.482 92.6363 181.343 92.7758 181.064 92.9153L129.457 144.661V144.66Z" fill="#FF6C37"/>
<path d="M87.196 204.495C86.6391 204.774 86.3601 205.332 86.4985 205.89L88.87 215.932C89.428 217.327 88.591 219.001 87.0565 219.419C85.9416 219.838 84.6861 219.419 83.9886 218.582L68.6458 203.379L118.718 153.308L136.013 153.587L147.729 165.303C144.939 167.673 128.063 183.993 87.196 204.495V204.495Z" fill="white"/>
<path d="M86.0812 220.813C84.9652 220.813 83.8492 220.396 83.1517 219.559L67.9484 204.356C67.6705 204.077 67.531 203.798 67.531 203.38C67.531 202.962 67.6705 202.683 67.9495 202.404L118.02 152.332C118.299 152.053 118.718 151.914 118.997 151.914L136.293 152.193C136.71 152.193 136.99 152.332 137.268 152.611L148.984 164.327C149.263 164.606 149.402 165.024 149.402 165.443C149.402 165.861 149.263 166.14 148.844 166.419L147.868 167.255C133.084 180.227 112.999 193.198 88.0331 205.611L90.4046 215.515C90.8231 217.327 89.9861 219.28 88.3121 220.256C87.4751 220.675 86.7776 220.815 86.0812 220.815V220.813ZM70.7384 203.38L85.1047 217.606C85.5232 218.304 86.3602 218.583 87.0566 218.164C87.7541 217.746 88.0331 216.909 87.6146 216.211L85.2442 206.169C84.9652 204.914 85.5232 203.798 86.6392 203.241C111.325 190.828 131.271 177.996 145.916 165.303L135.595 154.983L119.555 154.704L70.7384 203.38V203.38Z" fill="#FF6C37"/>
<path d="M56.7919 215.375L68.7856 203.38L86.6394 221.232L58.1858 219.28C56.9303 219.14 56.0933 218.024 56.2339 216.769C56.2339 216.211 56.3734 215.653 56.7908 215.374L56.7919 215.375Z" fill="white"/>
<path d="M86.6395 222.487L58.0463 220.535C55.9538 220.396 54.5588 218.582 54.6994 216.49C54.8389 215.653 55.1179 214.817 55.8154 214.259L67.8103 202.264C67.9362 202.132 68.0876 202.027 68.2553 201.955C68.4231 201.883 68.6037 201.846 68.7862 201.846C68.9687 201.846 69.1493 201.883 69.3171 201.955C69.4848 202.027 69.6363 202.132 69.7622 202.264L87.6149 220.116C88.0334 220.535 88.1729 221.093 87.8939 221.65C87.6149 222.208 87.1964 222.487 86.6395 222.487ZM68.7857 205.333L57.7673 216.351C57.3488 216.629 57.3488 217.327 57.7673 217.606C57.9068 217.745 58.0463 217.885 58.3253 217.885L83.0125 219.559L68.7857 205.332V205.333ZM113.837 159.724C113 159.724 112.442 159.027 112.442 158.329C112.442 157.911 112.581 157.632 112.86 157.353L126.389 143.823C126.515 143.691 126.667 143.586 126.835 143.514C127.002 143.442 127.183 143.405 127.366 143.405C127.548 143.405 127.729 143.442 127.897 143.514C128.065 143.586 128.216 143.691 128.342 143.823L137.129 152.611C137.547 153.029 137.687 153.448 137.547 154.006C137.408 154.424 136.989 154.843 136.431 154.982L114.116 159.723H113.837V159.724ZM127.366 146.753L118.16 155.958L133.224 152.75L127.366 146.753V146.753Z" fill="#FF6C37"/>
<path d="M136.013 153.587L120.671 156.934C119.555 157.213 118.439 156.516 118.16 155.4C118.02 154.702 118.16 154.005 118.718 153.448L127.226 144.939L136.013 153.587V153.587Z" fill="white"/>
<path d="M120.391 158.329C119.932 158.334 119.477 158.247 119.051 158.074C118.626 157.9 118.24 157.643 117.915 157.318C117.59 156.994 117.334 156.607 117.16 156.182C116.986 155.757 116.899 155.301 116.904 154.842C116.904 153.867 117.322 153.03 117.88 152.332L126.389 143.824C126.515 143.691 126.666 143.586 126.834 143.514C127.002 143.442 127.183 143.405 127.365 143.405C127.548 143.405 127.729 143.442 127.897 143.514C128.064 143.586 128.216 143.691 128.342 143.824L137.128 152.611C137.547 153.03 137.686 153.448 137.547 154.006C137.407 154.425 136.989 154.843 136.431 154.983L121.089 158.329H120.391ZM127.365 146.753L119.833 154.284C119.554 154.564 119.554 154.843 119.694 155.121C119.833 155.4 120.112 155.539 120.531 155.539L133.363 152.749L127.365 146.753V146.753ZM221.51 70.7387C221.231 69.9028 220.255 69.4843 219.418 69.7633C218.582 70.0423 218.164 71.0177 218.443 71.8558C218.443 71.9942 218.582 72.1337 218.582 72.2732C219.419 73.9472 219.14 76.0397 218.024 77.5732C217.466 78.2707 217.606 79.2472 218.164 79.8052C218.861 80.3632 219.836 80.2237 220.394 79.5262C222.487 76.8757 222.905 73.5287 221.51 70.7387V70.7387Z" fill="#FF6C37"/>
</g>
<defs>
<clipPath id="clip0_101_101">
<rect width="279" height="279" fill="white"/>
</clipPath>
</defs>
</svg>
