<svg width="248" height="248" viewBox="0 0 248 248" fill="none" xmlns="http://www.w3.org/2000/svg">
<path d="M124 143.174C134.701 143.174 143.375 134.5 143.375 123.799C143.375 113.099 134.701 104.424 124 104.424C113.299 104.424 104.625 113.099 104.625 123.799C104.625 134.5 113.299 143.174 124 143.174Z" fill="#007ACC"/>
<path d="M124 168.22C100.712 168.783 77.4829 165.644 55.18 158.92C44.8773 155.654 35.2682 150.509 26.8383 143.745C23.6215 141.435 20.9426 138.456 18.9855 135.012C17.0284 131.569 15.8394 127.743 15.5 123.797C15.5 110.986 29.574 98.4312 53.1495 90.2162C76.0487 82.937 99.9744 79.4091 124 79.7692C147.705 79.438 171.31 82.9021 193.92 90.0302C203.843 93.1934 213.126 98.0896 221.34 104.492C224.502 106.695 227.14 109.566 229.069 112.902C230.998 116.238 232.169 119.958 232.5 123.797C232.5 137.111 216.768 150.604 191.425 158.99C169.554 165.495 146.815 168.608 124 168.22V168.22ZM124 89.0382C101.014 88.7309 78.1264 92.0847 56.1952 98.9737C34.4952 106.545 24.769 116.899 24.769 123.774C24.769 130.966 35.2238 142.273 58.1792 150.124C79.5156 156.524 101.731 159.503 124 158.951C145.827 159.341 167.585 156.388 188.519 150.193C212.35 142.296 223.2 130.973 223.2 123.797C222.809 121.334 221.911 118.979 220.564 116.881C219.217 114.783 217.449 112.987 215.373 111.606C208.024 105.927 199.731 101.587 190.875 98.7877C169.245 91.9968 146.669 88.7055 124 89.0382V89.0382Z" fill="#007ACC"/>
<path d="M79.9809 220.433C76.3655 220.516 72.7928 219.639 69.6269 217.891C58.5289 211.49 54.6849 193.029 59.3426 168.5C64.4781 145.026 73.3764 122.537 85.6926 101.905C97.2458 81.2052 112.036 62.4875 129.503 46.4612C137.2 39.4451 146.08 33.8484 155.729 29.9304C159.22 28.2947 163.027 27.4468 166.882 27.4468C170.736 27.4468 174.544 28.2947 178.034 29.9304C189.574 36.5799 193.394 56.9469 188.008 83.0877C182.714 105.288 174.047 126.545 162.309 146.118C151.163 166.573 136.838 185.128 119.87 201.089C111.894 208.38 102.637 214.132 92.5669 218.054C88.5355 219.55 84.2803 220.355 79.9809 220.433V220.433ZM93.7216 106.508C81.9734 126.265 73.445 147.767 68.4566 170.205C64.1709 192.797 68.2861 206.382 74.2691 209.839C80.4691 213.427 95.5196 210.025 113.794 194.06C129.992 178.769 143.664 161.008 154.303 141.437C165.548 122.725 173.862 102.402 178.956 81.1734C184.025 56.5672 179.646 41.5012 173.43 37.9207C171.101 37.0281 168.611 36.6285 166.12 36.7472C163.628 36.866 161.188 37.5004 158.953 38.6104C150.364 42.1549 142.467 47.1868 135.626 53.4749C118.938 68.826 104.809 86.7452 93.7759 106.555L93.7216 106.508Z" fill="#007ACC"/>
<path d="M167.997 220.534C157.496 220.534 144.158 214.179 130.27 202.236C112.497 186.064 97.4564 167.124 85.7308 146.149C73.569 125.801 64.7413 103.637 59.5823 80.4991C57.345 70.3194 56.9304 59.8236 58.3578 49.4991C58.6879 45.6691 59.8541 41.9581 61.7743 38.6279C63.6945 35.2976 66.322 32.4292 69.4713 30.2248C80.9956 23.5521 100.549 30.4108 120.505 48.1273C137.095 63.7993 151.183 81.9228 162.278 101.866C174.432 121.74 183.352 143.418 188.705 166.09C191.039 176.643 191.399 187.537 189.767 198.222C189.379 202.162 188.143 205.971 186.144 209.389C184.146 212.807 181.432 215.752 178.188 218.023C175.074 219.749 171.557 220.616 167.997 220.534V220.534ZM93.7521 141.484C105.001 161.529 119.368 179.655 136.315 195.184C153.745 210.18 167.571 213.404 173.515 209.909C179.715 206.305 184.288 191.595 179.576 167.795C174.413 146.149 165.857 125.456 154.225 106.485C143.638 87.3975 130.191 70.0433 114.352 55.0248C95.5656 38.3468 80.3291 34.6191 74.1213 38.2151C72.1865 39.7874 70.5987 41.7438 69.4582 43.9608C68.3177 46.1778 67.6493 48.6072 67.4951 51.0956C66.2629 60.3033 66.6643 69.6561 68.6809 78.7243C73.6432 100.852 82.1096 122.044 93.7598 141.499L93.7521 141.484Z" fill="#007ACC"/>
</svg>
