<svg width="117" height="117" viewBox="0 0 117 117" fill="none" xmlns="http://www.w3.org/2000/svg">
<path fill-rule="evenodd" clip-rule="evenodd" d="M58.5 7.3125C68.6239 7.3125 78.5205 10.3146 86.9382 15.9391C95.356 21.5637 101.917 29.5581 105.791 38.9114C109.665 48.2647 110.679 58.5568 108.704 68.4862C106.729 78.4156 101.854 87.5363 94.695 94.695C87.5363 101.854 78.4156 106.729 68.4862 108.704C58.5568 110.679 48.2647 109.665 38.9114 105.791C29.5581 101.917 21.5637 95.356 15.9391 86.9382C10.3146 78.5205 7.3125 68.6239 7.3125 58.5C7.3125 44.9242 12.7055 31.9045 22.305 22.305C31.9045 12.7055 44.9242 7.3125 58.5 7.3125V7.3125Z" fill="#CC6699"/>
<path d="M90.6091 29.2203C88.291 20.1308 73.2163 17.1546 58.9496 22.2076C50.0148 25.2099 41.76 29.9449 34.6575 36.1415C26.8002 43.4906 25.5461 49.889 26.0616 52.5618C27.8898 61.9949 40.8073 68.1593 46.1198 72.7333V72.7589C44.5549 73.5303 33.0889 79.3401 30.3979 85.2633C27.568 91.5228 30.8477 96.0126 33.0231 96.6159C36.2893 97.4022 39.7198 97.1463 42.8331 95.8841C45.9465 94.6218 48.5866 92.4165 50.383 89.5776C51.8676 87.2776 52.7965 84.6635 53.096 81.9423C53.3956 79.2211 53.0575 76.4676 52.1088 73.8996C54.6676 73.2494 57.3276 73.0968 59.9441 73.4499C68.9238 74.4993 70.6862 80.1043 70.3498 82.4516C70.1916 83.2871 69.8553 84.0788 69.3638 84.7728C68.8724 85.4668 68.2372 86.0468 67.5016 86.4735C66.8727 86.8647 66.6789 86.9963 66.7338 87.2888C66.8105 87.7093 67.0994 87.6947 67.6368 87.6032C68.9863 87.1783 70.1753 86.3544 71.0473 85.2403C71.9193 84.1262 72.4333 82.7741 72.5216 81.362C72.7373 75.8777 67.4687 69.7132 58.1379 69.8704C55.4279 69.7931 52.7237 70.1637 50.1344 70.9673C50.0048 70.8193 49.8731 70.673 49.7395 70.5286C43.9699 64.3751 33.3083 60.0205 33.758 51.7464C33.9226 48.7373 34.9683 40.8179 54.233 31.2093C70.028 23.3373 82.6713 25.5055 84.8578 30.3062C87.9802 37.1653 78.101 49.9073 61.6991 51.7464C59.8862 52.1144 58.0138 52.0696 56.2206 51.6151C54.4275 51.1606 52.7597 50.3083 51.3409 49.1212C50.4781 48.1706 50.3501 48.1304 50.0283 48.3059C49.5055 48.5947 49.8382 49.4357 50.0283 49.9329C50.6564 51.0648 51.5042 52.0599 52.5219 52.8598C53.5396 53.6596 54.7069 54.2482 55.9551 54.591C62.4039 55.9922 69.1303 55.327 75.1797 52.6897C85.1283 48.8543 92.8869 38.1598 90.6091 29.2203V29.2203ZM48.3282 75.5486C49.0544 78.052 49.0175 80.7151 48.2222 83.1975C48.1368 83.4558 48.043 83.7118 47.9406 83.9653C47.8383 84.2188 47.7273 84.4625 47.6079 84.6965C46.9926 85.9555 46.1955 87.1172 45.2423 88.1444C42.2698 91.3875 38.1126 92.616 36.332 91.5813C34.4088 90.4661 35.3704 85.8921 38.8183 82.2468C41.4675 79.6271 44.5219 77.4517 47.8638 75.8045L48.3282 75.5486Z" fill="white"/>
</svg>
