<svg width="216" height="216" viewBox="0 0 216 216" fill="none" xmlns="http://www.w3.org/2000/svg">
<path d="M39.8386 183.607L24.6714 13.5H191.329L176.141 183.58L107.899 202.5L39.8386 183.607Z" fill="#E44F26"/>
<path d="M108 188.042L163.148 172.753L176.121 27.4121H108V188.042Z" fill="#F1662A"/>
<path d="M108 90.4966H80.3925L78.489 69.1328H108V48.2686H55.6875L56.187 53.8711L61.3103 111.361H108V90.4966V90.4966ZM108 144.679L107.906 144.706L84.672 138.435L83.187 121.796H62.2417L65.1645 154.547L107.906 166.414L108 166.387V144.679Z" fill="#EBEBEB"/>
<path d="M107.926 90.4966V111.361H133.616L131.2 138.422L107.926 144.699V166.407L150.701 154.547L151.011 151.024L155.912 96.0991L156.425 90.4966H107.926V90.4966ZM107.926 48.2686V69.1328H158.321L158.74 64.4483L159.692 53.8711L160.191 48.2686H107.926V48.2686Z" fill="white"/>
</svg>
