<svg width="228" height="259" viewBox="0 0 228 259" fill="none" xmlns="http://www.w3.org/2000/svg">
<g clip-path="url(#clip0_101_60)">
<path d="M122.609 94.9564L90.4309 0H227.137L194.848 95.2326C193.459 95.5649 192.093 95.9882 190.76 96.4998L158.863 31.4306L126.873 96.1148C125.479 95.6326 124.055 95.2456 122.609 94.9564Z" fill="#99425B"/>
<path d="M17.4775 250.397C60.476 280.599 108.17 222.158 173.135 214.796C210.443 212.585 235.8 189.746 221.352 154.391C194.488 170.938 169.382 149.255 169.558 127.498H149.145C148.474 146.923 133.864 162.205 111.216 159.933C93.4884 186.453 72.9424 201.353 49.6294 208.927C33.8724 201.655 19.0441 183.942 25.767 160.284C22.8416 159.958 19.9736 159.238 17.2407 158.144C-4.43128 198.612 -7.1093 230.595 17.4775 250.397V250.397ZM49.4888 127.501C49.4888 112.131 32.7352 102.473 19.4053 110.158C6.07542 117.843 6.0744 137.16 19.4053 144.845C32.7352 152.53 49.4888 142.872 49.4888 127.501ZM136.197 127.311C136.197 111.941 119.443 102.282 106.113 109.967C92.7833 117.653 92.7828 136.97 106.113 144.654C119.444 152.34 136.197 142.681 136.197 127.311H136.197ZM222.58 127.311C222.58 111.941 205.826 102.282 192.496 109.967C179.166 117.653 179.165 136.97 192.496 144.654C205.826 152.34 222.579 142.681 222.579 127.311H222.58Z" fill="#99425B"/>
</g>
<defs>
<clipPath id="clip0_101_60">
<rect width="227.637" height="259" fill="white"/>
</clipPath>
</defs>
</svg>
