<svg width="256" height="256" viewBox="0 0 256 256" fill="none" xmlns="http://www.w3.org/2000/svg">
<g clip-path="url(#clip0_101_73)">
<path d="M38.944 35.8791C89.524 -13.1199 170.398 -11.8029 219.397 39.0401C224.929 31.6641 229.671 23.4981 233.096 15.0681C249.166 64.0671 258.913 105.163 255.224 137.038C253.38 163.908 242.843 189.725 225.456 210.273C180.146 264.014 99.534 270.863 45.793 225.553L44.765 224.638L44.71 224.602C44.541 224.484 44.3749 224.362 44.212 224.235C43.722 223.854 43.277 223.439 42.876 222.995L42.732 222.831L41.052 221.338C39.412 219.933 37.773 218.528 36.319 216.938L35.783 216.332C-13.217 165.752 -11.636 84.8781 38.943 35.8791H38.944Z" fill="#6DB33F"/>
<path d="M57.9099 207.376C53.1679 203.688 46.3189 204.214 42.6299 208.956C39.3879 213.126 39.4039 218.925 42.6789 222.771L42.7309 222.831L44.7639 224.638L44.9639 224.774C49.5679 227.802 55.7639 227.176 59.2969 222.896L59.4909 222.655C63.1789 217.913 62.3889 211.064 57.9109 207.375L57.9099 207.376Z" fill="#6DB33F"/>
<path d="M231.78 28.2388C218.607 55.8998 185.94 76.9748 157.753 83.5608C131.146 89.8828 107.963 84.6148 83.4639 94.0978C27.6159 115.437 28.6699 181.822 59.2279 196.838L61.0719 197.892C61.0719 197.892 83.1459 193.503 104.974 187.707L106.844 187.207C115.562 184.857 124.139 182.297 131.146 179.715C167.5 166.28 207.543 133.087 220.714 94.6248C213.865 134.667 179.355 173.392 144.844 191.043C126.404 200.526 112.179 202.633 81.8839 213.171C78.1959 214.488 75.2979 215.806 75.2979 215.806L76.4059 215.656L77.1419 215.561L77.8749 215.469C84.5649 214.639 90.5769 214.225 90.5769 214.225C133.517 212.117 200.957 226.343 232.306 184.457C264.445 141.78 246.531 72.7598 231.779 28.2388H231.78Z" fill="#6DB33F"/>
<path d="M57.9109 207.376C62.3899 211.064 63.1799 217.913 59.4909 222.655C55.8039 227.397 48.9539 227.924 44.2119 224.235C39.4709 220.547 38.9439 213.698 42.6319 208.956C46.3199 204.214 53.1689 203.688 57.9119 207.376H57.9109Z" fill="white"/>
<path d="M231.78 28.2388C246.532 72.7598 264.446 141.78 232.307 184.457C200.957 226.343 133.518 212.117 90.5779 214.225C90.5779 214.225 84.5659 214.64 77.8759 215.469L77.1429 215.561C76.5309 215.639 75.9149 215.721 75.2989 215.806C75.2989 215.806 78.1969 214.488 81.8849 213.171C112.18 202.634 126.405 200.526 144.845 191.043C179.356 173.393 213.866 134.667 220.715 94.6248C207.544 133.087 167.501 166.28 131.147 179.715C106.121 188.935 61.0729 197.892 61.0729 197.892L59.2289 196.838C28.6709 181.822 27.6169 115.437 83.4649 94.0978C107.965 84.6148 131.147 89.8828 157.755 83.5608C185.942 76.9748 218.608 55.9008 231.78 28.2388V28.2388Z" fill="white"/>
</g>
<defs>
<clipPath id="clip0_101_73">
<rect width="256" height="256" fill="white"/>
</clipPath>
</defs>
</svg>
